<svg width="24" height="24" viewBox="0 0 24 24" fill="none" xmlns="http://www.w3.org/2000/svg">
<path fill-rule="evenodd" clip-rule="evenodd" d="M17.8572 20.4168C19.7322 20.4168 21.2502 18.8978 21.2502 17.0238V14.3238C20.0102 14.3238 19.0102 13.3238 19.0102 12.0848C19.0102 10.8448 20.0102 9.84579 21.2502 9.84579L21.2482 7.14279C21.2482 5.26879 19.7302 3.74979 17.8562 3.74979H6.14424C4.27024 3.74979 2.75124 5.26879 2.75124 7.14279L2.75024 9.93279C3.98924 9.93279 4.98924 10.8448 4.98924 12.0848C4.98924 13.3238 3.98924 14.3238 2.75024 14.3238V17.0238C2.75024 18.8978 4.26824 20.4168 6.14224 20.4168H17.8572Z" fill="#3E4356" stroke="#3E4356" stroke-width="1.5" stroke-linecap="round" stroke-linejoin="round"/>
<path d="M12.4179 9.24327L12.4723 9.13307M12.4179 9.24327L12.327 9.05916L12.4732 9.13134L12.4723 9.13307M12.4179 9.24327L12.4111 9.22944M12.4723 9.13307C12.4548 9.16835 12.4342 9.20049 12.4111 9.22944M12.4723 9.13307L12.4111 9.22944M13.3906 15.4331L13.3906 15.4331L12.8719 8.46878L12.1987 8.79927L12.8712 8.46724L12.8714 8.46772C12.5137 7.74105 11.485 7.74931 11.1291 8.4655L11.1282 8.46724L10.4317 9.87785L8.8767 10.1041L8.8767 10.1041L8.87463 10.1044C8.08241 10.2219 7.75965 11.197 8.33749 11.7617L8.33847 11.7626L9.46371 12.8583L9.19751 14.4083L9.19745 14.4087C9.06044 15.2087 9.90017 15.8026 10.6065 15.4343L10.6065 15.4343L10.6088 15.4331L11.9997 14.7017L13.3906 15.4331ZM13.5677 9.87782L13.1776 9.82109L13.0697 10.5633L13.7422 10.2312L13.5677 9.87782Z" fill="white" stroke="#3E4356" stroke-width="1.5" stroke-linecap="round" stroke-linejoin="round"/>
</svg>
